<?xml version="1.0" encoding="UTF-8"?>
<svg id="Layer_1" data-name="Layer 1" xmlns="http://www.w3.org/2000/svg" viewBox="0 0 412.5 412.5">
  <defs>
    <style>
      .cls-1 {
        fill: #fff;
        stroke-width: 0px;
      }
    </style>
  </defs>
  <path class="cls-1" d="m307.17,110.32h-41.69c-8.09,0-14.66,6.56-14.66,14.66s-6.36,14.17-14.17,14.17-14.17-6.36-14.17-14.17h-29.31c0,23.97,19.5,43.48,43.48,43.48,18.83,0,34.91-12.04,40.94-28.82h29.57c4.49,0,8.14,3.65,8.14,8.14v79.14c0,4.49-3.65,8.14-8.14,8.14h-29.57c-6.03-16.78-22.1-28.82-40.94-28.82s-34.91,12.04-40.94,28.82h-29.57c-4.49,0-8.14-3.65-8.14-8.14v-101.94c0-8.09-6.56-14.66-14.66-14.66h-55.04c-4.57,0-8.87,2.13-11.65,5.76l-22.8,29.84,23.29,17.79,18.4-24.08h33.14v87.28c0,20.65,16.8,37.45,37.45,37.45h41.69c8.09,0,14.66-6.56,14.66-14.66s6.36-14.17,14.17-14.17,14.17,6.36,14.17,14.17,6.56,14.66,14.66,14.66h41.69c20.65,0,37.45-16.8,37.45-37.45v-79.14c0-20.65-16.8-37.45-37.45-37.45Z"/>
  <g>
    <path class="cls-1" d="m297.39,273.88c-11.32,0-20.53,9.21-20.53,20.53s9.21,20.53,20.53,20.53,20.53-9.21,20.53-20.53-9.21-20.53-20.53-20.53Zm0,20.68c-.09,0-.15-.06-.15-.15,0-.09.06-.15.15-.15.09,0,.15.06.15.15,0,.09-.06.15-.15.15Z"/>
    <path class="cls-1" d="m175.91,273.88c-11.32,0-20.53,9.21-20.53,20.53s9.21,20.53,20.53,20.53,20.53-9.21,20.53-20.53-9.21-20.53-20.53-20.53Zm0,20.68c-.09,0-.15-.06-.15-.15,0-.09.06-.15.15-.15.09,0,.15.06.15.15,0,.09-.06.15-.15.15Z"/>
  </g>
</svg>