<svg xmlns="http://www.w3.org/2000/svg" width="256" height="183" viewBox="0 0 256 183" fill="none" aria-hidden="true">
  <path d="m221.7 3.31h-35.98c-8.07 0-14.12 6.37-14.12 12.48 0 7.78-5.77 11.63-12.21 11.63-7.42 0-11.72-6.11-11.72-12.63h-25.31c0 20.56 16.25 38.75 37.03 38.75 17.19 0 30.33-11.26 35.87-25.72h26.29c5.24 0 6.87 4.63 6.87 7.4v68.19c0 5.16-3.71 6.81-6.72 6.81h-26.65c-5.92-15.52-19.06-23.95-35.16-23.95-15.42 0-29.6 10.14-35.13 23.95h-25.12c-4.73 0-7-3.77-7-6.61v-88.82c0-7.95-5.93-11.58-11.46-11.58h-49.43c-4.87 0-7.99 2.51-9.93 5.17l-18.83 25.47 18.47 15.56 16.24-21.91h29.35v76.41c0 16.7 13.61 32.37 31.77 32.37h36.37c8.07 0 12.48-6.52 12.48-12.35 0-7.02 5.68-13.75 12.72-13.75 7.6 0 11.75 6.86 11.75 12.91 0 7.09 5.38 13.19 12.95 13.19h36.61c17.86 0 32-15.59 32-32.37v-67.75c0-17.67-13.74-32.85-32-32.85z" fill="#1D2B64"/>
  <path d="m108.1 144.3c-10.46 0-18.11 8.83-17.59 18.57 0.59 9.74 8.8 17.12 18.1 16.7 9.8-0.54 17.04-9.11 16.51-18.2-0.74-9.58-8.2-17.07-17.02-17.07zm-0.33 17.67 0.52-0.08 0.03 0.65-0.55-0.57z" fill="#4F46E5"/>
  <path d="m212.3 144.3c-10.55 0.32-17.59 9.36-17.34 18.38 0.35 9.98 9.01 17.4 18.5 16.89 9.8-0.7 17.15-9.39 16.82-17.86-0.74-9.66-8.51-17.62-17.98-17.41zm0.15 18.09 0.36-0.41 0.36 0.41h-0.72z" fill="#4F46E5"/>
</svg>
