<svg xmlns="http://www.w3.org/2000/svg" width="1200" height="630" viewBox="0 0 1200 630" fill="none">
  <rect width="1200" height="630" fill="#F6F1E8"/>
  <rect x="34" y="34" width="1132" height="562" rx="28" fill="#FBF8F2" stroke="#D8D1C6"/>
  <rect x="84" y="84" width="160" height="40" rx="20" fill="#1E6B48" fill-opacity=".12"/>
  <text x="108" y="109" fill="#1E6B48" font-family="Arial, sans-serif" font-size="18" font-weight="700" letter-spacing=".12em">SHOPIFY PLUS</text>
  <text x="84" y="208" fill="#1B2431" font-family="Arial, sans-serif" font-size="60" font-weight="700">Checkout merchandising</text>
  <text x="84" y="278" fill="#1B2431" font-family="Arial, sans-serif" font-size="60" font-weight="700">for agencies and operators.</text>
  <text x="84" y="342" fill="#546071" font-family="Arial, sans-serif" font-size="28">Gifts, upsells, trust messaging, and payment control in one app.</text>
  <rect x="84" y="416" width="250" height="52" rx="26" fill="#1E6B48"/>
  <text x="128" y="449" fill="#FBF8F2" font-family="Arial, sans-serif" font-size="24" font-weight="700">Install on Shopify</text>
  <rect x="760" y="118" width="322" height="354" rx="28" fill="#FFFFFF" stroke="#D8D1C6"/>
  <rect x="792" y="156" width="258" height="22" rx="11" fill="#1E6B48" fill-opacity=".14"/>
  <rect x="792" y="202" width="202" height="16" rx="8" fill="#D9E3DB"/>
  <rect x="792" y="232" width="226" height="16" rx="8" fill="#D9E3DB"/>
  <rect x="792" y="288" width="114" height="114" rx="22" fill="#F1E9DC"/>
  <rect x="936" y="288" width="114" height="114" rx="22" fill="#EEF4F0"/>
  <rect x="792" y="434" width="258" height="14" rx="7" fill="#D9E3DB"/>
  <text x="84" y="548" fill="#1B2431" font-family="Arial, sans-serif" font-size="24" font-weight="700">SMART CHECKOUT WIDGETS</text>
</svg>
